<?xml version="1.0" encoding="utf-8" standalone="no"?>
<!DOCTYPE svg PUBLIC "-//W3C//DTD SVG 1.1//EN"
  "http://www.w3.org/Graphics/SVG/1.1/DTD/svg11.dtd">
<svg xmlns:xlink="http://www.w3.org/1999/xlink" width="518.740157pt" height="249.448819pt" viewBox="0 0 518.740157 249.448819" xmlns="http://www.w3.org/2000/svg" version="1.1">
 <metadata>
  <rdf:RDF xmlns:dc="http://purl.org/dc/elements/1.1/" xmlns:cc="http://creativecommons.org/ns#" xmlns:rdf="http://www.w3.org/1999/02/22-rdf-syntax-ns#">
   <cc:Work>
    <dc:type rdf:resource="http://purl.org/dc/dcmitype/StillImage"/>
    <dc:date>2026-07-24T06:47:35.597450</dc:date>
    <dc:format>image/svg+xml</dc:format>
    <dc:creator>
     <cc:Agent>
      <dc:title>Matplotlib v3.10.7+dfsg1, https://matplotlib.org/</dc:title>
     </cc:Agent>
    </dc:creator>
   </cc:Work>
  </rdf:RDF>
 </metadata>
 <defs>
  <style type="text/css">*{stroke-linejoin: round; stroke-linecap: butt}</style>
 </defs>
 <g id="figure_1">
  <g id="patch_1">
   <path d="M 0 249.448819 
L 518.740157 249.448819 
L 518.740157 0 
L 0 0 
z
" style="fill: #ffffff"/>
  </g>
  <g id="axes_1">
   <g id="patch_2">
    <path d="M 54.467717 202.053543 
L 249.549485 202.053543 
L 249.549485 57.373228 
L 54.467717 57.373228 
z
" style="fill: #ffffff"/>
   </g>
   <g id="line2d_1">
    <path d="M 65.186495 202.053543 
L 65.186495 57.373228 
" clip-path="url(#pdf5496ffc0)" style="fill: none; stroke-dasharray: 2.4,1.6; stroke-dashoffset: 0; stroke: #20272c; stroke-width: 0.8"/>
   </g>
   <g id="matplotlib.axis_1">
    <g id="xtick_1">
     <g id="line2d_2">
      <path d="M 65.186495 202.053543 
L 65.186495 57.373228 
" clip-path="url(#pdf5496ffc0)" style="fill: none; stroke: #d8dee2; stroke-width: 0.5; stroke-linecap: square"/>
     </g>
     <g id="line2d_3">
      <defs>
       <path id="mea5110323a" d="M 0 0 
L 0 3.5 
" style="stroke: #20272c; stroke-width: 0.8"/>
      </defs>
      <g>
       <use xlink:href="#mea5110323a" x="65.186495" y="202.053543" style="fill: #20272c; stroke: #20272c; stroke-width: 0.8"/>
      </g>
     </g>
     <g id="text_1">
      <text style="font-size: 8px; font-family: 'Arial', 'Helvetica', 'DejaVu Sans', sans-serif; text-anchor: middle; fill: #20272c" x="65.186495" y="215.132293" transform="rotate(-0 65.186495 215.132293)">0.0</text>
     </g>
    </g>
    <g id="xtick_2">
     <g id="line2d_4">
      <path d="M 108.061609 202.053543 
L 108.061609 57.373228 
" clip-path="url(#pdf5496ffc0)" style="fill: none; stroke: #d8dee2; stroke-width: 0.5; stroke-linecap: square"/>
     </g>
     <g id="line2d_5">
      <g>
       <use xlink:href="#mea5110323a" x="108.061609" y="202.053543" style="fill: #20272c; stroke: #20272c; stroke-width: 0.8"/>
      </g>
     </g>
     <g id="text_2">
      <text style="font-size: 8px; font-family: 'Arial', 'Helvetica', 'DejaVu Sans', sans-serif; text-anchor: middle; fill: #20272c" x="108.061609" y="215.132293" transform="rotate(-0 108.061609 215.132293)">0.2</text>
     </g>
    </g>
    <g id="xtick_3">
     <g id="line2d_6">
      <path d="M 150.936723 202.053543 
L 150.936723 57.373228 
" clip-path="url(#pdf5496ffc0)" style="fill: none; stroke: #d8dee2; stroke-width: 0.5; stroke-linecap: square"/>
     </g>
     <g id="line2d_7">
      <g>
       <use xlink:href="#mea5110323a" x="150.936723" y="202.053543" style="fill: #20272c; stroke: #20272c; stroke-width: 0.8"/>
      </g>
     </g>
     <g id="text_3">
      <text style="font-size: 8px; font-family: 'Arial', 'Helvetica', 'DejaVu Sans', sans-serif; text-anchor: middle; fill: #20272c" x="150.936723" y="215.132293" transform="rotate(-0 150.936723 215.132293)">0.4</text>
     </g>
    </g>
    <g id="xtick_4">
     <g id="line2d_8">
      <path d="M 193.811837 202.053543 
L 193.811837 57.373228 
" clip-path="url(#pdf5496ffc0)" style="fill: none; stroke: #d8dee2; stroke-width: 0.5; stroke-linecap: square"/>
     </g>
     <g id="line2d_9">
      <g>
       <use xlink:href="#mea5110323a" x="193.811837" y="202.053543" style="fill: #20272c; stroke: #20272c; stroke-width: 0.8"/>
      </g>
     </g>
     <g id="text_4">
      <text style="font-size: 8px; font-family: 'Arial', 'Helvetica', 'DejaVu Sans', sans-serif; text-anchor: middle; fill: #20272c" x="193.811837" y="215.132293" transform="rotate(-0 193.811837 215.132293)">0.6</text>
     </g>
    </g>
    <g id="xtick_5">
     <g id="line2d_10">
      <path d="M 236.686951 202.053543 
L 236.686951 57.373228 
" clip-path="url(#pdf5496ffc0)" style="fill: none; stroke: #d8dee2; stroke-width: 0.5; stroke-linecap: square"/>
     </g>
     <g id="line2d_11">
      <g>
       <use xlink:href="#mea5110323a" x="236.686951" y="202.053543" style="fill: #20272c; stroke: #20272c; stroke-width: 0.8"/>
      </g>
     </g>
     <g id="text_5">
      <text style="font-size: 8px; font-family: 'Arial', 'Helvetica', 'DejaVu Sans', sans-serif; text-anchor: middle; fill: #20272c" x="236.686951" y="215.132293" transform="rotate(-0 236.686951 215.132293)">0.8</text>
     </g>
    </g>
    <g id="text_6">
     <text style="font-size: 8.5px; font-family: 'Arial', 'Helvetica', 'DejaVu Sans', sans-serif; text-anchor: middle; fill: #20272c" x="152.008601" y="227.254715" transform="rotate(-0 152.008601 227.254715)">New-task improvement (higher is better)</text>
    </g>
   </g>
   <g id="matplotlib.axis_2">
    <g id="ytick_1">
     <g id="line2d_12">
      <defs>
       <path id="mfaed608464" d="M 0 0 
L -3.5 0 
" style="stroke: #20272c; stroke-width: 0.8"/>
      </defs>
      <g>
       <use xlink:href="#mfaed608464" x="54.467717" y="82.45115" style="fill: #20272c; stroke: #20272c; stroke-width: 0.8"/>
      </g>
     </g>
     <g id="text_7">
      <text style="font-size: 8px; font-family: 'Arial', 'Helvetica', 'DejaVu Sans', sans-serif; text-anchor: end; fill: #20272c" x="47.467717" y="85.490525" transform="rotate(-0 47.467717 85.490525)">Replay</text>
     </g>
    </g>
    <g id="ytick_2">
     <g id="line2d_13">
      <g>
       <use xlink:href="#mfaed608464" x="54.467717" y="130.677921" style="fill: #20272c; stroke: #20272c; stroke-width: 0.8"/>
      </g>
     </g>
     <g id="text_8">
      <text style="font-size: 8px; font-family: 'Arial', 'Helvetica', 'DejaVu Sans', sans-serif; text-anchor: end; fill: #20272c" x="47.467717" y="133.717296" transform="rotate(-0 47.467717 133.717296)">Naive</text>
     </g>
    </g>
    <g id="ytick_3">
     <g id="line2d_14">
      <g>
       <use xlink:href="#mfaed608464" x="54.467717" y="178.904693" style="fill: #20272c; stroke: #20272c; stroke-width: 0.8"/>
      </g>
     </g>
     <g id="text_9">
      <text style="font-size: 8px; font-family: 'Arial', 'Helvetica', 'DejaVu Sans', sans-serif; text-anchor: end; fill: #20272c" x="47.467717" y="181.944068" transform="rotate(-0 47.467717 181.944068)">No update</text>
     </g>
    </g>
   </g>
   <g id="LineCollection_1">
    <path d="M 157.042089 77.146205 
L 172.23413 77.146205 
" clip-path="url(#pdf5496ffc0)" style="fill: none; stroke: #315f78"/>
   </g>
   <g id="LineCollection_2">
    <path d="M 124.954404 87.756094 
L 152.951853 87.756094 
" clip-path="url(#pdf5496ffc0)" style="fill: none; stroke: #315f78"/>
   </g>
   <g id="LineCollection_3">
    <path d="M 212.676475 125.372976 
L 229.202736 125.372976 
" clip-path="url(#pdf5496ffc0)" style="fill: none; stroke: #9a5a5a"/>
   </g>
   <g id="LineCollection_4">
    <path d="M 206.888747 135.982866 
L 237.372953 135.982866 
" clip-path="url(#pdf5496ffc0)" style="fill: none; stroke: #9a5a5a"/>
   </g>
   <g id="LineCollection_5">
    <path d="M 65.186495 173.599748 
L 65.186495 173.599748 
" clip-path="url(#pdf5496ffc0)" style="fill: none; stroke: #7a858c"/>
   </g>
   <g id="LineCollection_6">
    <path d="M 65.186495 184.209638 
L 65.186495 184.209638 
" clip-path="url(#pdf5496ffc0)" style="fill: none; stroke: #7a858c"/>
   </g>
   <g id="patch_3">
    <path d="M 54.467717 202.053543 
L 54.467717 57.373228 
" style="fill: none; stroke: #20272c; stroke-width: 0.7; stroke-linejoin: miter; stroke-linecap: square"/>
   </g>
   <g id="patch_4">
    <path d="M 54.467717 202.053543 
L 249.549485 202.053543 
" style="fill: none; stroke: #20272c; stroke-width: 0.7; stroke-linejoin: miter; stroke-linecap: square"/>
   </g>
   <g id="PathCollection_1">
    <defs>
     <path id="mc812d9768c" d="M 0 2.061553 
C 0.54673 2.061553 1.071141 1.844335 1.457738 1.457738 
C 1.844335 1.071141 2.061553 0.54673 2.061553 0 
C 2.061553 -0.54673 1.844335 -1.071141 1.457738 -1.457738 
C 1.071141 -1.844335 0.54673 -2.061553 0 -2.061553 
C -0.54673 -2.061553 -1.071141 -1.844335 -1.457738 -1.457738 
C -1.844335 -1.071141 -2.061553 -0.54673 -2.061553 0 
C -2.061553 0.54673 -1.844335 1.071141 -1.457738 1.457738 
C -1.071141 1.844335 -0.54673 2.061553 0 2.061553 
z
" style="stroke: #ffffff; stroke-width: 0.35"/>
    </defs>
    <g clip-path="url(#pdf5496ffc0)">
     <use xlink:href="#mc812d9768c" x="172.23413" y="75.795855" style="fill: #7893a2; stroke: #ffffff; stroke-width: 0.35"/>
     <use xlink:href="#mc812d9768c" x="171.725878" y="76.47103" style="fill: #7893a2; stroke: #ffffff; stroke-width: 0.35"/>
     <use xlink:href="#mc812d9768c" x="166.202869" y="77.146205" style="fill: #7893a2; stroke: #ffffff; stroke-width: 0.35"/>
     <use xlink:href="#mc812d9768c" x="157.042089" y="77.82138" style="fill: #7893a2; stroke: #ffffff; stroke-width: 0.35"/>
     <use xlink:href="#mc812d9768c" x="166.197428" y="78.496554" style="fill: #7893a2; stroke: #ffffff; stroke-width: 0.35"/>
    </g>
   </g>
   <g id="PathCollection_2">
    <defs>
     <path id="mf3a7343084" d="M -2.061553 2.061553 
L 2.061553 2.061553 
L 2.061553 -2.061553 
L -2.061553 -2.061553 
z
" style="stroke: #ffffff; stroke-width: 0.35"/>
    </defs>
    <g clip-path="url(#pdf5496ffc0)">
     <use xlink:href="#mf3a7343084" x="149.82197" y="86.405745" style="fill: #7893a2; stroke: #ffffff; stroke-width: 0.35"/>
     <use xlink:href="#mf3a7343084" x="152.951853" y="87.08092" style="fill: #7893a2; stroke: #ffffff; stroke-width: 0.35"/>
     <use xlink:href="#mf3a7343084" x="138.845941" y="87.756094" style="fill: #7893a2; stroke: #ffffff; stroke-width: 0.35"/>
     <use xlink:href="#mf3a7343084" x="124.954404" y="88.431269" style="fill: #7893a2; stroke: #ffffff; stroke-width: 0.35"/>
     <use xlink:href="#mf3a7343084" x="141.418448" y="89.106444" style="fill: #7893a2; stroke: #ffffff; stroke-width: 0.35"/>
    </g>
   </g>
   <g id="PathCollection_3">
    <defs>
     <path id="m1f86ddddba" d="M 0 2.061553 
C 0.54673 2.061553 1.071141 1.844335 1.457738 1.457738 
C 1.844335 1.071141 2.061553 0.54673 2.061553 0 
C 2.061553 -0.54673 1.844335 -1.071141 1.457738 -1.457738 
C 1.071141 -1.844335 0.54673 -2.061553 0 -2.061553 
C -0.54673 -2.061553 -1.071141 -1.844335 -1.457738 -1.457738 
C -1.844335 -1.071141 -2.061553 -0.54673 -2.061553 0 
C -2.061553 0.54673 -1.844335 1.071141 -1.457738 1.457738 
C -1.071141 1.844335 -0.54673 2.061553 0 2.061553 
z
" style="stroke: #ffffff; stroke-width: 0.35"/>
    </defs>
    <g clip-path="url(#pdf5496ffc0)">
     <use xlink:href="#m1f86ddddba" x="229.202736" y="124.022627" style="fill: #c08e8e; stroke: #ffffff; stroke-width: 0.35"/>
     <use xlink:href="#m1f86ddddba" x="225.192629" y="124.697802" style="fill: #c08e8e; stroke: #ffffff; stroke-width: 0.35"/>
     <use xlink:href="#m1f86ddddba" x="228.736582" y="125.372976" style="fill: #c08e8e; stroke: #ffffff; stroke-width: 0.35"/>
     <use xlink:href="#m1f86ddddba" x="212.676475" y="126.048151" style="fill: #c08e8e; stroke: #ffffff; stroke-width: 0.35"/>
     <use xlink:href="#m1f86ddddba" x="226.511053" y="126.723326" style="fill: #c08e8e; stroke: #ffffff; stroke-width: 0.35"/>
    </g>
   </g>
   <g id="PathCollection_4">
    <defs>
     <path id="mfc3c56ecb8" d="M -2.061553 2.061553 
L 2.061553 2.061553 
L 2.061553 -2.061553 
L -2.061553 -2.061553 
z
" style="stroke: #ffffff; stroke-width: 0.35"/>
    </defs>
    <g clip-path="url(#pdf5496ffc0)">
     <use xlink:href="#mfc3c56ecb8" x="237.372953" y="134.632517" style="fill: #c08e8e; stroke: #ffffff; stroke-width: 0.35"/>
     <use xlink:href="#mfc3c56ecb8" x="235.186322" y="135.307691" style="fill: #c08e8e; stroke: #ffffff; stroke-width: 0.35"/>
     <use xlink:href="#mfc3c56ecb8" x="234.671821" y="135.982866" style="fill: #c08e8e; stroke: #ffffff; stroke-width: 0.35"/>
     <use xlink:href="#mfc3c56ecb8" x="206.888747" y="136.658041" style="fill: #c08e8e; stroke: #ffffff; stroke-width: 0.35"/>
     <use xlink:href="#mfc3c56ecb8" x="237.029952" y="137.333216" style="fill: #c08e8e; stroke: #ffffff; stroke-width: 0.35"/>
    </g>
   </g>
   <g id="PathCollection_5">
    <defs>
     <path id="mf804839fc8" d="M 0 2.061553 
C 0.54673 2.061553 1.071141 1.844335 1.457738 1.457738 
C 1.844335 1.071141 2.061553 0.54673 2.061553 0 
C 2.061553 -0.54673 1.844335 -1.071141 1.457738 -1.457738 
C 1.071141 -1.844335 0.54673 -2.061553 0 -2.061553 
C -0.54673 -2.061553 -1.071141 -1.844335 -1.457738 -1.457738 
C -1.844335 -1.071141 -2.061553 -0.54673 -2.061553 0 
C -2.061553 0.54673 -1.844335 1.071141 -1.457738 1.457738 
C -1.071141 1.844335 -0.54673 2.061553 0 2.061553 
z
" style="stroke: #ffffff; stroke-width: 0.35"/>
    </defs>
    <g clip-path="url(#pdf5496ffc0)">
     <use xlink:href="#mf804839fc8" x="65.186495" y="172.249398" style="fill: #aab1b5; stroke: #ffffff; stroke-width: 0.35"/>
     <use xlink:href="#mf804839fc8" x="65.186495" y="172.924573" style="fill: #aab1b5; stroke: #ffffff; stroke-width: 0.35"/>
     <use xlink:href="#mf804839fc8" x="65.186495" y="173.599748" style="fill: #aab1b5; stroke: #ffffff; stroke-width: 0.35"/>
     <use xlink:href="#mf804839fc8" x="65.186495" y="174.274923" style="fill: #aab1b5; stroke: #ffffff; stroke-width: 0.35"/>
     <use xlink:href="#mf804839fc8" x="65.186495" y="174.950098" style="fill: #aab1b5; stroke: #ffffff; stroke-width: 0.35"/>
    </g>
   </g>
   <g id="PathCollection_6">
    <defs>
     <path id="mf0839b233d" d="M -2.061553 2.061553 
L 2.061553 2.061553 
L 2.061553 -2.061553 
L -2.061553 -2.061553 
z
" style="stroke: #ffffff; stroke-width: 0.35"/>
    </defs>
    <g clip-path="url(#pdf5496ffc0)">
     <use xlink:href="#mf0839b233d" x="65.186495" y="182.859288" style="fill: #aab1b5; stroke: #ffffff; stroke-width: 0.35"/>
     <use xlink:href="#mf0839b233d" x="65.186495" y="183.534463" style="fill: #aab1b5; stroke: #ffffff; stroke-width: 0.35"/>
     <use xlink:href="#mf0839b233d" x="65.186495" y="184.209638" style="fill: #aab1b5; stroke: #ffffff; stroke-width: 0.35"/>
     <use xlink:href="#mf0839b233d" x="65.186495" y="184.884813" style="fill: #aab1b5; stroke: #ffffff; stroke-width: 0.35"/>
     <use xlink:href="#mf0839b233d" x="65.186495" y="185.559987" style="fill: #aab1b5; stroke: #ffffff; stroke-width: 0.35"/>
    </g>
   </g>
   <g id="text_10">
    <text style="font-weight: 700; font-size: 9px; font-family: 'Arial', 'Helvetica', 'DejaVu Sans', sans-serif; text-anchor: start; fill: #20272c" x="34.95954" y="54.054706" transform="rotate(-0 34.95954 54.054706)">a</text>
   </g>
   <g id="text_11">
    <text style="font-weight: 700; font-size: 8.5px; font-family: 'Arial', 'Helvetica', 'DejaVu Sans', sans-serif; text-anchor: start" x="54.467717" y="51.373228" transform="rotate(-0 54.467717 51.373228)">Learning the new task</text>
   </g>
   <g id="PathCollection_7">
    <defs>
     <path id="m192bcf9d2f" d="M 0 3.427827 
C 0.90907 3.427827 1.78103 3.06665 2.42384 2.42384 
C 3.06665 1.78103 3.427827 0.90907 3.427827 0 
C 3.427827 -0.90907 3.06665 -1.78103 2.42384 -2.42384 
C 1.78103 -3.06665 0.90907 -3.427827 0 -3.427827 
C -0.90907 -3.427827 -1.78103 -3.06665 -2.42384 -2.42384 
C -3.06665 -1.78103 -3.427827 -0.90907 -3.427827 0 
C -3.427827 0.90907 -3.06665 1.78103 -2.42384 2.42384 
C -1.78103 3.06665 -0.90907 3.427827 0 3.427827 
z
" style="stroke: #ffffff; stroke-width: 0.7"/>
    </defs>
    <g clip-path="url(#pdf5496ffc0)">
     <use xlink:href="#m192bcf9d2f" x="166.202869" y="77.146205" style="fill: #315f78; stroke: #ffffff; stroke-width: 0.7"/>
    </g>
   </g>
   <g id="PathCollection_8">
    <defs>
     <path id="m937657d70b" d="M -3.427827 3.427827 
L 3.427827 3.427827 
L 3.427827 -3.427827 
L -3.427827 -3.427827 
z
" style="stroke: #ffffff; stroke-width: 0.7"/>
    </defs>
    <g clip-path="url(#pdf5496ffc0)">
     <use xlink:href="#m937657d70b" x="141.418448" y="87.756094" style="fill: #315f78; stroke: #ffffff; stroke-width: 0.7"/>
    </g>
   </g>
   <g id="PathCollection_9">
    <defs>
     <path id="m957968b800" d="M 0 3.427827 
C 0.90907 3.427827 1.78103 3.06665 2.42384 2.42384 
C 3.06665 1.78103 3.427827 0.90907 3.427827 0 
C 3.427827 -0.90907 3.06665 -1.78103 2.42384 -2.42384 
C 1.78103 -3.06665 0.90907 -3.427827 0 -3.427827 
C -0.90907 -3.427827 -1.78103 -3.06665 -2.42384 -2.42384 
C -3.06665 -1.78103 -3.427827 -0.90907 -3.427827 0 
C -3.427827 0.90907 -3.06665 1.78103 -2.42384 2.42384 
C -1.78103 3.06665 -0.90907 3.427827 0 3.427827 
z
" style="stroke: #ffffff; stroke-width: 0.7"/>
    </defs>
    <g clip-path="url(#pdf5496ffc0)">
     <use xlink:href="#m957968b800" x="226.511053" y="125.372976" style="fill: #9a5a5a; stroke: #ffffff; stroke-width: 0.7"/>
    </g>
   </g>
   <g id="PathCollection_10">
    <defs>
     <path id="mfe664239c4" d="M -3.427827 3.427827 
L 3.427827 3.427827 
L 3.427827 -3.427827 
L -3.427827 -3.427827 
z
" style="stroke: #ffffff; stroke-width: 0.7"/>
    </defs>
    <g clip-path="url(#pdf5496ffc0)">
     <use xlink:href="#mfe664239c4" x="235.186322" y="135.982866" style="fill: #9a5a5a; stroke: #ffffff; stroke-width: 0.7"/>
    </g>
   </g>
   <g id="PathCollection_11">
    <defs>
     <path id="m9b9614d025" d="M 0 3.427827 
C 0.90907 3.427827 1.78103 3.06665 2.42384 2.42384 
C 3.06665 1.78103 3.427827 0.90907 3.427827 0 
C 3.427827 -0.90907 3.06665 -1.78103 2.42384 -2.42384 
C 1.78103 -3.06665 0.90907 -3.427827 0 -3.427827 
C -0.90907 -3.427827 -1.78103 -3.06665 -2.42384 -2.42384 
C -3.06665 -1.78103 -3.427827 -0.90907 -3.427827 0 
C -3.427827 0.90907 -3.06665 1.78103 -2.42384 2.42384 
C -1.78103 3.06665 -0.90907 3.427827 0 3.427827 
z
" style="stroke: #ffffff; stroke-width: 0.7"/>
    </defs>
    <g clip-path="url(#pdf5496ffc0)">
     <use xlink:href="#m9b9614d025" x="65.186495" y="173.599748" style="fill: #7a858c; stroke: #ffffff; stroke-width: 0.7"/>
    </g>
   </g>
   <g id="PathCollection_12">
    <defs>
     <path id="md9a5a0832a" d="M -3.427827 3.427827 
L 3.427827 3.427827 
L 3.427827 -3.427827 
L -3.427827 -3.427827 
z
" style="stroke: #ffffff; stroke-width: 0.7"/>
    </defs>
    <g clip-path="url(#pdf5496ffc0)">
     <use xlink:href="#md9a5a0832a" x="65.186495" y="184.209638" style="fill: #7a858c; stroke: #ffffff; stroke-width: 0.7"/>
    </g>
   </g>
  </g>
  <g id="axes_2">
   <g id="patch_5">
    <path d="M 315.877286 202.053543 
L 510.959055 202.053543 
L 510.959055 57.373228 
L 315.877286 57.373228 
z
" style="fill: #ffffff"/>
   </g>
   <g id="patch_6">
    <path d="M 315.877286 202.053543 
L 334.817264 202.053543 
L 334.817264 57.373228 
L 315.877286 57.373228 
z
" clip-path="url(#pd3dbb6331c)" style="fill: #eaf0f2; stroke: #eaf0f2; stroke-linejoin: miter"/>
   </g>
   <g id="line2d_15">
    <path d="M 334.817264 202.053543 
L 334.817264 57.373228 
" clip-path="url(#pd3dbb6331c)" style="fill: none; stroke-dasharray: 2.4,1.6; stroke-dashoffset: 0; stroke: #20272c; stroke-width: 0.8"/>
   </g>
   <g id="matplotlib.axis_3">
    <g id="xtick_6">
     <g id="line2d_16">
      <path d="M 325.347275 202.053543 
L 325.347275 57.373228 
" clip-path="url(#pd3dbb6331c)" style="fill: none; stroke: #d8dee2; stroke-width: 0.5; stroke-linecap: square"/>
     </g>
     <g id="line2d_17">
      <g>
       <use xlink:href="#mea5110323a" x="325.347275" y="202.053543" style="fill: #20272c; stroke: #20272c; stroke-width: 0.8"/>
      </g>
     </g>
     <g id="text_12">
      <text style="font-size: 8px; font-family: 'Arial', 'Helvetica', 'DejaVu Sans', sans-serif; text-anchor: middle; fill: #20272c" x="325.347275" y="215.132293" transform="rotate(-0 325.347275 215.132293)">0.0</text>
     </g>
    </g>
    <g id="xtick_7">
     <g id="line2d_18">
      <path d="M 363.22723 202.053543 
L 363.22723 57.373228 
" clip-path="url(#pd3dbb6331c)" style="fill: none; stroke: #d8dee2; stroke-width: 0.5; stroke-linecap: square"/>
     </g>
     <g id="line2d_19">
      <g>
       <use xlink:href="#mea5110323a" x="363.22723" y="202.053543" style="fill: #20272c; stroke: #20272c; stroke-width: 0.8"/>
      </g>
     </g>
     <g id="text_13">
      <text style="font-size: 8px; font-family: 'Arial', 'Helvetica', 'DejaVu Sans', sans-serif; text-anchor: middle; fill: #20272c" x="363.22723" y="215.132293" transform="rotate(-0 363.22723 215.132293)">0.2</text>
     </g>
    </g>
    <g id="xtick_8">
     <g id="line2d_20">
      <path d="M 401.107185 202.053543 
L 401.107185 57.373228 
" clip-path="url(#pd3dbb6331c)" style="fill: none; stroke: #d8dee2; stroke-width: 0.5; stroke-linecap: square"/>
     </g>
     <g id="line2d_21">
      <g>
       <use xlink:href="#mea5110323a" x="401.107185" y="202.053543" style="fill: #20272c; stroke: #20272c; stroke-width: 0.8"/>
      </g>
     </g>
     <g id="text_14">
      <text style="font-size: 8px; font-family: 'Arial', 'Helvetica', 'DejaVu Sans', sans-serif; text-anchor: middle; fill: #20272c" x="401.107185" y="215.132293" transform="rotate(-0 401.107185 215.132293)">0.4</text>
     </g>
    </g>
    <g id="xtick_9">
     <g id="line2d_22">
      <path d="M 438.98714 202.053543 
L 438.98714 57.373228 
" clip-path="url(#pd3dbb6331c)" style="fill: none; stroke: #d8dee2; stroke-width: 0.5; stroke-linecap: square"/>
     </g>
     <g id="line2d_23">
      <g>
       <use xlink:href="#mea5110323a" x="438.98714" y="202.053543" style="fill: #20272c; stroke: #20272c; stroke-width: 0.8"/>
      </g>
     </g>
     <g id="text_15">
      <text style="font-size: 8px; font-family: 'Arial', 'Helvetica', 'DejaVu Sans', sans-serif; text-anchor: middle; fill: #20272c" x="438.98714" y="215.132293" transform="rotate(-0 438.98714 215.132293)">0.6</text>
     </g>
    </g>
    <g id="xtick_10">
     <g id="line2d_24">
      <path d="M 476.867096 202.053543 
L 476.867096 57.373228 
" clip-path="url(#pd3dbb6331c)" style="fill: none; stroke: #d8dee2; stroke-width: 0.5; stroke-linecap: square"/>
     </g>
     <g id="line2d_25">
      <g>
       <use xlink:href="#mea5110323a" x="476.867096" y="202.053543" style="fill: #20272c; stroke: #20272c; stroke-width: 0.8"/>
      </g>
     </g>
     <g id="text_16">
      <text style="font-size: 8px; font-family: 'Arial', 'Helvetica', 'DejaVu Sans', sans-serif; text-anchor: middle; fill: #20272c" x="476.867096" y="215.132293" transform="rotate(-0 476.867096 215.132293)">0.8</text>
     </g>
    </g>
    <g id="text_17">
     <text style="font-size: 8.5px; font-family: 'Arial', 'Helvetica', 'DejaVu Sans', sans-serif; text-anchor: middle; fill: #20272c" x="413.418171" y="227.254715" transform="rotate(-0 413.418171 227.254715)">Old-task loss increase (lower is better)</text>
    </g>
   </g>
   <g id="matplotlib.axis_4">
    <g id="ytick_4">
     <g id="line2d_26">
      <g>
       <use xlink:href="#mfaed608464" x="315.877286" y="82.45115" style="fill: #20272c; stroke: #20272c; stroke-width: 0.8"/>
      </g>
     </g>
     <g id="text_18">
      <text style="font-size: 8px; font-family: 'Arial', 'Helvetica', 'DejaVu Sans', sans-serif; text-anchor: end; fill: #20272c" x="308.877286" y="85.490525" transform="rotate(-0 308.877286 85.490525)">Replay</text>
     </g>
    </g>
    <g id="ytick_5">
     <g id="line2d_27">
      <g>
       <use xlink:href="#mfaed608464" x="315.877286" y="130.677921" style="fill: #20272c; stroke: #20272c; stroke-width: 0.8"/>
      </g>
     </g>
     <g id="text_19">
      <text style="font-size: 8px; font-family: 'Arial', 'Helvetica', 'DejaVu Sans', sans-serif; text-anchor: end; fill: #20272c" x="308.877286" y="133.717296" transform="rotate(-0 308.877286 133.717296)">Naive</text>
     </g>
    </g>
    <g id="ytick_6">
     <g id="line2d_28">
      <g>
       <use xlink:href="#mfaed608464" x="315.877286" y="178.904693" style="fill: #20272c; stroke: #20272c; stroke-width: 0.8"/>
      </g>
     </g>
     <g id="text_20">
      <text style="font-size: 8px; font-family: 'Arial', 'Helvetica', 'DejaVu Sans', sans-serif; text-anchor: end; fill: #20272c" x="308.877286" y="181.944068" transform="rotate(-0 308.877286 181.944068)">No update</text>
     </g>
    </g>
   </g>
   <g id="LineCollection_7">
    <path d="M 330.09506 77.146205 
L 331.606079 77.146205 
" clip-path="url(#pd3dbb6331c)" style="fill: none; stroke: #315f78"/>
   </g>
   <g id="LineCollection_8">
    <path d="M 330.726229 87.756094 
L 333.718745 87.756094 
" clip-path="url(#pd3dbb6331c)" style="fill: none; stroke: #315f78"/>
   </g>
   <g id="LineCollection_9">
    <path d="M 456.237454 125.372976 
L 467.617137 125.372976 
" clip-path="url(#pd3dbb6331c)" style="fill: none; stroke: #9a5a5a"/>
   </g>
   <g id="LineCollection_10">
    <path d="M 494.405515 135.982866 
L 496.791952 135.982866 
" clip-path="url(#pd3dbb6331c)" style="fill: none; stroke: #9a5a5a"/>
   </g>
   <g id="LineCollection_11">
    <path d="M 325.347275 173.599748 
L 325.347275 173.599748 
" clip-path="url(#pd3dbb6331c)" style="fill: none; stroke: #7a858c"/>
   </g>
   <g id="LineCollection_12">
    <path d="M 325.347275 184.209638 
L 325.347275 184.209638 
" clip-path="url(#pd3dbb6331c)" style="fill: none; stroke: #7a858c"/>
   </g>
   <g id="patch_7">
    <path d="M 315.877286 202.053543 
L 315.877286 57.373228 
" style="fill: none; stroke: #20272c; stroke-width: 0.7; stroke-linejoin: miter; stroke-linecap: square"/>
   </g>
   <g id="patch_8">
    <path d="M 315.877286 202.053543 
L 510.959055 202.053543 
" style="fill: none; stroke: #20272c; stroke-width: 0.7; stroke-linejoin: miter; stroke-linecap: square"/>
   </g>
   <g id="PathCollection_13">
    <g clip-path="url(#pd3dbb6331c)">
     <use xlink:href="#mc812d9768c" x="330.809566" y="75.795855" style="fill: #7893a2; stroke: #ffffff; stroke-width: 0.35"/>
     <use xlink:href="#mc812d9768c" x="331.606079" y="76.47103" style="fill: #7893a2; stroke: #ffffff; stroke-width: 0.35"/>
     <use xlink:href="#mc812d9768c" x="330.500901" y="77.146205" style="fill: #7893a2; stroke: #ffffff; stroke-width: 0.35"/>
     <use xlink:href="#mc812d9768c" x="330.09506" y="77.82138" style="fill: #7893a2; stroke: #ffffff; stroke-width: 0.35"/>
     <use xlink:href="#mc812d9768c" x="330.230077" y="78.496554" style="fill: #7893a2; stroke: #ffffff; stroke-width: 0.35"/>
    </g>
   </g>
   <g id="PathCollection_14">
    <g clip-path="url(#pd3dbb6331c)">
     <use xlink:href="#mf3a7343084" x="332.392947" y="86.405745" style="fill: #7893a2; stroke: #ffffff; stroke-width: 0.35"/>
     <use xlink:href="#mf3a7343084" x="333.718745" y="87.08092" style="fill: #7893a2; stroke: #ffffff; stroke-width: 0.35"/>
     <use xlink:href="#mf3a7343084" x="331.938387" y="87.756094" style="fill: #7893a2; stroke: #ffffff; stroke-width: 0.35"/>
     <use xlink:href="#mf3a7343084" x="330.726229" y="88.431269" style="fill: #7893a2; stroke: #ffffff; stroke-width: 0.35"/>
     <use xlink:href="#mf3a7343084" x="331.673228" y="89.106444" style="fill: #7893a2; stroke: #ffffff; stroke-width: 0.35"/>
    </g>
   </g>
   <g id="PathCollection_15">
    <g clip-path="url(#pd3dbb6331c)">
     <use xlink:href="#m1f86ddddba" x="467.617137" y="124.022627" style="fill: #c08e8e; stroke: #ffffff; stroke-width: 0.35"/>
     <use xlink:href="#m1f86ddddba" x="461.246947" y="124.697802" style="fill: #c08e8e; stroke: #ffffff; stroke-width: 0.35"/>
     <use xlink:href="#m1f86ddddba" x="460.432161" y="125.372976" style="fill: #c08e8e; stroke: #ffffff; stroke-width: 0.35"/>
     <use xlink:href="#m1f86ddddba" x="456.237454" y="126.048151" style="fill: #c08e8e; stroke: #ffffff; stroke-width: 0.35"/>
     <use xlink:href="#m1f86ddddba" x="462.864606" y="126.723326" style="fill: #c08e8e; stroke: #ffffff; stroke-width: 0.35"/>
    </g>
   </g>
   <g id="PathCollection_16">
    <g clip-path="url(#pd3dbb6331c)">
     <use xlink:href="#mfc3c56ecb8" x="496.791952" y="134.632517" style="fill: #c08e8e; stroke: #ffffff; stroke-width: 0.35"/>
     <use xlink:href="#mfc3c56ecb8" x="496.526792" y="135.307691" style="fill: #c08e8e; stroke: #ffffff; stroke-width: 0.35"/>
     <use xlink:href="#mfc3c56ecb8" x="496.754072" y="135.982866" style="fill: #c08e8e; stroke: #ffffff; stroke-width: 0.35"/>
     <use xlink:href="#mfc3c56ecb8" x="496.488912" y="136.658041" style="fill: #c08e8e; stroke: #ffffff; stroke-width: 0.35"/>
     <use xlink:href="#mfc3c56ecb8" x="494.405515" y="137.333216" style="fill: #c08e8e; stroke: #ffffff; stroke-width: 0.35"/>
    </g>
   </g>
   <g id="PathCollection_17">
    <g clip-path="url(#pd3dbb6331c)">
     <use xlink:href="#mf804839fc8" x="325.347275" y="172.249398" style="fill: #aab1b5; stroke: #ffffff; stroke-width: 0.35"/>
     <use xlink:href="#mf804839fc8" x="325.347275" y="172.924573" style="fill: #aab1b5; stroke: #ffffff; stroke-width: 0.35"/>
     <use xlink:href="#mf804839fc8" x="325.347275" y="173.599748" style="fill: #aab1b5; stroke: #ffffff; stroke-width: 0.35"/>
     <use xlink:href="#mf804839fc8" x="325.347275" y="174.274923" style="fill: #aab1b5; stroke: #ffffff; stroke-width: 0.35"/>
     <use xlink:href="#mf804839fc8" x="325.347275" y="174.950098" style="fill: #aab1b5; stroke: #ffffff; stroke-width: 0.35"/>
    </g>
   </g>
   <g id="PathCollection_18">
    <g clip-path="url(#pd3dbb6331c)">
     <use xlink:href="#mf0839b233d" x="325.347275" y="182.859288" style="fill: #aab1b5; stroke: #ffffff; stroke-width: 0.35"/>
     <use xlink:href="#mf0839b233d" x="325.347275" y="183.534463" style="fill: #aab1b5; stroke: #ffffff; stroke-width: 0.35"/>
     <use xlink:href="#mf0839b233d" x="325.347275" y="184.209638" style="fill: #aab1b5; stroke: #ffffff; stroke-width: 0.35"/>
     <use xlink:href="#mf0839b233d" x="325.347275" y="184.884813" style="fill: #aab1b5; stroke: #ffffff; stroke-width: 0.35"/>
     <use xlink:href="#mf0839b233d" x="325.347275" y="185.559987" style="fill: #aab1b5; stroke: #ffffff; stroke-width: 0.35"/>
    </g>
   </g>
   <g id="text_21">
    <text style="font-size: 8.2px; font-family: 'Arial', 'Helvetica', 'DejaVu Sans', sans-serif; text-anchor: start; fill: #66737b" x="337.090061" y="198.04675" transform="rotate(-0 337.090061 198.04675)">0.05 margin</text>
   </g>
   <g id="text_22">
    <text style="font-weight: 700; font-size: 9px; font-family: 'Arial', 'Helvetica', 'DejaVu Sans', sans-serif; text-anchor: start; fill: #20272c" x="296.36911" y="54.054706" transform="rotate(-0 296.36911 54.054706)">b</text>
   </g>
   <g id="text_23">
    <text style="font-weight: 700; font-size: 8.5px; font-family: 'Arial', 'Helvetica', 'DejaVu Sans', sans-serif; text-anchor: start" x="315.877286" y="51.373228" transform="rotate(-0 315.877286 51.373228)">Retaining the old task</text>
   </g>
   <g id="PathCollection_19">
    <g clip-path="url(#pd3dbb6331c)">
     <use xlink:href="#m192bcf9d2f" x="330.500901" y="77.146205" style="fill: #315f78; stroke: #ffffff; stroke-width: 0.7"/>
    </g>
   </g>
   <g id="PathCollection_20">
    <g clip-path="url(#pd3dbb6331c)">
     <use xlink:href="#m937657d70b" x="331.938387" y="87.756094" style="fill: #315f78; stroke: #ffffff; stroke-width: 0.7"/>
    </g>
   </g>
   <g id="PathCollection_21">
    <g clip-path="url(#pd3dbb6331c)">
     <use xlink:href="#m957968b800" x="461.246947" y="125.372976" style="fill: #9a5a5a; stroke: #ffffff; stroke-width: 0.7"/>
    </g>
   </g>
   <g id="PathCollection_22">
    <g clip-path="url(#pd3dbb6331c)">
     <use xlink:href="#mfe664239c4" x="496.526792" y="135.982866" style="fill: #9a5a5a; stroke: #ffffff; stroke-width: 0.7"/>
    </g>
   </g>
   <g id="PathCollection_23">
    <g clip-path="url(#pd3dbb6331c)">
     <use xlink:href="#m9b9614d025" x="325.347275" y="173.599748" style="fill: #7a858c; stroke: #ffffff; stroke-width: 0.7"/>
    </g>
   </g>
   <g id="PathCollection_24">
    <g clip-path="url(#pd3dbb6331c)">
     <use xlink:href="#md9a5a0832a" x="325.347275" y="184.209638" style="fill: #7a858c; stroke: #ffffff; stroke-width: 0.7"/>
    </g>
   </g>
  </g>
  <g id="legend_1">
   <g id="line2d_29">
    <defs>
     <path id="m3843e94ddf" d="M 0 2.75 
C 0.729309 2.75 1.428845 2.460243 1.944544 1.944544 
C 2.460243 1.428845 2.75 0.729309 2.75 0 
C 2.75 -0.729309 2.460243 -1.428845 1.944544 -1.944544 
C 1.428845 -2.460243 0.729309 -2.75 0 -2.75 
C -0.729309 -2.75 -1.428845 -2.460243 -1.944544 -1.944544 
C -2.460243 -1.428845 -2.75 -0.729309 -2.75 0 
C -2.75 0.729309 -2.460243 1.428845 -1.944544 1.944544 
C -1.428845 2.460243 -0.729309 2.75 0 2.75 
z
" style="stroke: #20272c"/>
    </defs>
    <g>
     <use xlink:href="#m3843e94ddf" x="184.947579" y="12.973238" style="fill: #20272c; stroke: #20272c"/>
    </g>
   </g>
   <g id="text_24">
    <text style="font-size: 8px; font-family: 'Arial', 'Helvetica', 'DejaVu Sans', sans-serif; text-anchor: start" x="196.947579" y="15.773238" transform="rotate(-0 196.947579 15.773238)">Brier loss</text>
   </g>
   <g id="line2d_30">
    <defs>
     <path id="m66f34e32d6" d="M -2.75 2.75 
L 2.75 2.75 
L 2.75 -2.75 
L -2.75 -2.75 
z
" style="stroke: #20272c; stroke-linejoin: miter"/>
    </defs>
    <g>
     <use xlink:href="#m66f34e32d6" x="254.953829" y="12.973238" style="fill: #20272c; stroke: #20272c; stroke-linejoin: miter"/>
    </g>
   </g>
   <g id="text_25">
    <text style="font-size: 8px; font-family: 'Arial', 'Helvetica', 'DejaVu Sans', sans-serif; text-anchor: start" x="266.953829" y="15.773238" transform="rotate(-0 266.953829 15.773238)">Classification error</text>
   </g>
  </g>
 </g>
 <defs>
  <clipPath id="pdf5496ffc0">
   <rect x="54.467717" y="57.373228" width="195.081769" height="144.680315"/>
  </clipPath>
  <clipPath id="pd3dbb6331c">
   <rect x="315.877286" y="57.373228" width="195.081769" height="144.680315"/>
  </clipPath>
 </defs>
</svg>
